<svg width="250" height="50" viewBox="0 0 250 50" fill="none" xmlns="http://www.w3.org/2000/svg">
  <!-- Waves Icon -->
  <g transform="translate(0, 0)">
    <path d="M0.120605 7.70731H2.24879C12.8271 7.70731 23.3101 5.71338 33.1501 1.83002L36.9999 0.310547V11.374L33.1493 12.8935C23.3101 16.7769 12.8264 18.7708 2.24802 18.7708H0.120605V7.70731Z" fill="#6F96D1"></path>
    <path d="M0.120605 26.1676H2.24879C12.8271 26.1676 23.3101 24.1736 33.1501 20.2903L37.0007 18.7708V29.8343L33.1501 31.3538C23.3109 35.2371 12.8271 37.231 2.24879 37.231H0.120605V26.1676Z" fill="#6F96D1"></path>
    <path d="M73.8792 22.4535H71.751C61.1727 22.4535 50.6897 24.4475 40.8497 28.3308L36.9991 29.8503V18.7868L40.8497 17.2673C50.6889 13.384 61.1727 11.3901 71.751 11.3901H73.8792V22.4535Z" fill="#F4F0EB"></path>
    <path d="M73.8792 40.9138H71.751C61.1727 40.9138 50.6897 42.9077 40.8497 46.7911L36.9991 48.3105V37.2471L40.8497 35.7276C50.6889 31.8442 61.1727 29.8503 71.751 29.8503H73.8792V40.9138Z" fill="#F4F0EB"></path>
  </g>
  <!-- Text Logo -->
  <text x="86" y="24" font-family="'Fraunces', 'Cormorant Garamond', 'Georgia', serif" font-size="18.5" font-weight="500" fill="#FFFFFF" letter-spacing="4.5">RESERVA</text>
  <text x="86" y="38" font-family="'Archivo', 'DM Sans', 'Arial', sans-serif" font-size="8.5" font-weight="400" fill="#8A9BB0" letter-spacing="3.5">beach club</text>
</svg>
